<svg xmlns="http://www.w3.org/2000/svg" fill="none" viewBox="0 0 168 48">
  <path d="M30.207 20.983a5.106 5.106 0 01-1.327.373c.466-.28.838-.722 1.001-1.258a5.044 5.044 0 01-1.466.56 2.32 2.32 0 00-1.676-.723 2.285 2.285 0 00-2.282 2.282c0 .186.023.35.07.512a6.522 6.522 0 01-4.726-2.398c-.186.35-.302.722-.302 1.141 0 .791.396 1.49 1.024 1.909a2.693 2.693 0 01-1.047-.28v.024a2.3 2.3 0 001.838 2.258 2.56 2.56 0 01-.605.07 2.85 2.85 0 01-.442-.047c.303.908 1.14 1.583 2.142 1.583a4.658 4.658 0 01-2.84.978c-.187 0-.373 0-.536-.023a6.478 6.478 0 003.515 1.024c4.214 0 6.519-3.492 6.519-6.518v-.303a4.18 4.18 0 001.14-1.164z" fill="#090914"/>
  <path d="M78 24c0 7.732-6.268 14-14 14s-14-6.268-14-14 6.268-14 14-14 14 6.268 14 14z" fill="#D36134"/>
  <path d="M62.709 30.304V24.75h-1.87v-2.164h1.87V20.99c0-1.852 1.131-2.861 2.783-2.861.792 0 1.472.059 1.67.085v1.936h-1.146c-.898 0-1.072.428-1.072 1.054v1.382h2.143l-.28 2.164h-1.863v5.554h-2.235z" fill="#fff"/>
  <path d="M104.001 18.447c1.808 0 2.023.007 2.737.04.43.005.855.084 1.258.233a2.24 2.24 0 011.286 1.286c.149.402.228.828.233 1.258.033.714.04.928.04 2.737 0 1.809-.007 2.023-.04 2.737-.005.43-.084.856-.233 1.259a2.24 2.24 0 01-1.286 1.285c-.403.15-.828.228-1.258.234-.714.032-.928.039-2.737.039-1.809 0-2.023-.007-2.738-.04a3.761 3.761 0 01-1.258-.233 2.247 2.247 0 01-1.285-1.285 3.76 3.76 0 01-.234-1.259c-.032-.714-.04-.928-.04-2.737 0-1.809.008-2.023.04-2.737.005-.43.084-.855.233-1.258a2.243 2.243 0 011.286-1.286c.403-.15.829-.228 1.258-.233.715-.033.929-.04 2.738-.04zm0-1.22c-1.839 0-2.071.007-2.793.04a4.974 4.974 0 00-1.645.315c-.452.17-.861.437-1.2.782a3.317 3.317 0 00-.782 1.2 4.972 4.972 0 00-.314 1.645c-.033.721-.04.953-.04 2.792 0 1.838.007 2.07.04 2.793.011.562.118 1.118.315 1.645.17.452.437.861.782 1.2.338.344.747.611 1.2.781a4.97 4.97 0 001.644.315c.723.032.954.04 2.793.04 1.84 0 2.071-.007 2.793-.04a4.964 4.964 0 001.645-.315 3.468 3.468 0 001.981-1.982 4.974 4.974 0 00.315-1.645c.032-.722.04-.953.04-2.792s-.008-2.07-.041-2.793a4.949 4.949 0 00-.315-1.645 3.312 3.312 0 00-.781-1.2 3.318 3.318 0 00-1.2-.782 4.969 4.969 0 00-1.645-.314c-.722-.033-.954-.04-2.792-.04z" fill="#090914"/>
  <path d="M104.002 20.523a3.482 3.482 0 00-3.214 2.148 3.483 3.483 0 00.754 3.791 3.483 3.483 0 003.791.754 3.483 3.483 0 002.148-3.214 3.48 3.48 0 00-3.479-3.479zm0 5.737a2.257 2.257 0 110-4.514 2.257 2.257 0 010 4.514zm3.616-5.062a.812.812 0 100-1.624.812.812 0 000 1.624z" fill="#090914"/>
  <path fill-rule="evenodd" clip-rule="evenodd" d="M144.607 17.227a6.464 6.464 0 00-6.48 6.48c0 2.861 1.863 5.291 4.428 6.155.324.054.432-.135.432-.324v-1.107c-1.809.405-2.187-.864-2.187-.864-.297-.756-.729-.945-.729-.945-.594-.405.054-.405.054-.405.648.054.999.675.999.675.567 1 1.512.702 1.89.54.054-.432.216-.702.405-.864-1.431-.162-2.943-.729-2.943-3.213 0-.701.243-1.296.675-1.727-.054-.163-.297-.81.054-1.729 0 0 .54-.162 1.782.675a6.506 6.506 0 011.62-.216c.54 0 1.107.081 1.62.216 1.242-.837 1.782-.675 1.782-.675.351.892.135 1.54.054 1.729.405.459.675 1.026.675 1.727 0 2.484-1.512 3.024-2.97 3.186.243.19.432.594.432 1.188v1.782c0 .162.108.378.459.324a6.448 6.448 0 004.428-6.129 6.464 6.464 0 00-6.48-6.48z" fill="#090914"/>
</svg>
